<?xml version="1.0" standalone="no"?>
<!DOCTYPE svg PUBLIC "-//W3C//DTD SVG 20010904//EN"
 "http://www.w3.org/TR/2001/REC-SVG-20010904/DTD/svg10.dtd">
<svg version="1.0" xmlns="http://www.w3.org/2000/svg"
 width="189.000000pt" height="174.000000pt" viewBox="0 0 189.000000 174.000000"
 preserveAspectRatio="xMidYMid meet">

<g transform="translate(0.000000,174.000000) scale(0.100000,-0.100000)"
fill="#000000" stroke="none">
<path d="M690 1429 l0 -121 48 28 c26 15 64 38 85 51 l37 23 0 70 0 70 -85 0
-85 0 0 -121z"/>
<path d="M702 1193 c-303 -197 -550 -362 -548 -368 3 -10 445 -304 459 -304 4
-1 7 44 7 98 l0 99 -82 52 -82 52 27 22 c14 11 67 47 117 78 l90 58 0 -435 0
-435 85 0 85 0 0 114 c0 63 3 117 8 119 4 3 92 -51 196 -119 l189 -124 156 0
156 0 -187 123 c-103 67 -249 162 -324 211 -114 74 -134 90 -123 101 8 8 147
100 309 205 162 106 303 199 313 208 23 21 26 208 3 199 -8 -3 -93 -57 -188
-119 -336 -221 -448 -293 -478 -311 l-30 -19 0 196 0 195 180 118 c378 247
495 325 505 334 5 5 -48 9 -141 9 l-150 0 -552 -357z"/>
</g>
</svg>
